<svg width="191" height="61" viewBox="0 0 191 61" fill="none" xmlns="http://www.w3.org/2000/svg">
<rect width="191" height="61" rx="30.5" fill="white"/>
<path d="M48.244 38C48.0973 38 47.9727 37.9487 47.87 37.846C47.7673 37.7433 47.716 37.6187 47.716 37.472V23.15C47.716 22.9887 47.76 22.8567 47.848 22.754C47.9507 22.6513 48.0827 22.6 48.244 22.6H54.624C56.34 22.6 57.616 22.9813 58.452 23.744C59.3027 24.492 59.728 25.5187 59.728 26.824C59.728 27.5867 59.5373 28.2393 59.156 28.782C58.7893 29.31 58.3567 29.6913 57.858 29.926C58.474 30.2047 58.9873 30.6593 59.398 31.29C59.8233 31.9207 60.036 32.6393 60.036 33.446C60.036 34.81 59.574 35.91 58.65 36.746C57.7407 37.582 56.4573 38 54.8 38H48.244ZM54.228 28.914C54.9907 28.914 55.57 28.7307 55.966 28.364C56.362 27.9973 56.56 27.506 56.56 26.89C56.56 26.2593 56.362 25.7753 55.966 25.438C55.57 25.086 54.9907 24.91 54.228 24.91H50.774V28.914H54.228ZM54.448 35.668C55.2107 35.668 55.8047 35.4627 56.23 35.052C56.6553 34.6267 56.868 34.0913 56.868 33.446C56.868 32.786 56.6553 32.2507 56.23 31.84C55.8047 31.4147 55.2107 31.202 54.448 31.202H50.774V35.668H54.448ZM68.936 38.22C66.956 38.22 65.416 37.714 64.316 36.702C63.216 35.69 62.666 34.1573 62.666 32.104V23.15C62.666 22.9887 62.71 22.8567 62.798 22.754C62.9007 22.6513 63.0327 22.6 63.194 22.6H65.196C65.3574 22.6 65.482 22.6513 65.57 22.754C65.6727 22.8567 65.724 22.9887 65.724 23.15V32.104C65.724 33.2773 66.0027 34.1647 66.56 34.766C67.1174 35.3527 67.9094 35.646 68.936 35.646C69.9627 35.646 70.7474 35.3527 71.29 34.766C71.8474 34.1647 72.126 33.2773 72.126 32.104V23.15C72.126 22.9887 72.1774 22.8567 72.28 22.754C72.3827 22.6513 72.5147 22.6 72.676 22.6H74.656C74.8174 22.6 74.942 22.6513 75.03 22.754C75.1327 22.8567 75.184 22.9887 75.184 23.15V32.104C75.184 34.1573 74.634 35.69 73.534 36.702C72.4487 37.714 70.916 38.22 68.936 38.22ZM83.0576 38C82.911 38 82.7863 37.9487 82.6836 37.846C82.581 37.7433 82.5296 37.6187 82.5296 37.472V32.5L77.3376 23.304C77.2936 23.2307 77.2716 23.15 77.2716 23.062C77.2716 22.93 77.3156 22.82 77.4036 22.732C77.4916 22.644 77.5943 22.6 77.7116 22.6H79.6696C79.831 22.6 79.963 22.644 80.0656 22.732C80.183 22.82 80.271 22.9153 80.3296 23.018L84.0696 29.42L87.7876 23.018C87.9636 22.7393 88.191 22.6 88.4696 22.6H90.4056C90.5376 22.6 90.6476 22.644 90.7356 22.732C90.8236 22.82 90.8676 22.93 90.8676 23.062C90.8676 23.15 90.8456 23.2307 90.8016 23.304L85.6096 32.5V37.472C85.6096 37.6187 85.5583 37.7433 85.4556 37.846C85.353 37.9487 85.221 38 85.0596 38H83.0576ZM98.0018 38C97.8551 38 97.7305 37.9487 97.6278 37.846C97.5251 37.7433 97.4738 37.6187 97.4738 37.472V23.15C97.4738 22.9887 97.5178 22.8567 97.6058 22.754C97.7085 22.6513 97.8405 22.6 98.0018 22.6H99.6958C99.8718 22.6 100.004 22.6367 100.092 22.71C100.18 22.7687 100.26 22.8493 100.334 22.952L106.67 32.808V23.15C106.67 22.9887 106.714 22.8567 106.802 22.754C106.904 22.6513 107.036 22.6 107.198 22.6H109.046C109.207 22.6 109.339 22.6513 109.442 22.754C109.544 22.8567 109.596 22.9887 109.596 23.15V37.45C109.596 37.6113 109.544 37.7433 109.442 37.846C109.339 37.9487 109.214 38 109.068 38H107.352C107.102 38 106.89 37.8827 106.714 37.648L100.4 28.012V37.472C100.4 37.6333 100.348 37.7653 100.246 37.868C100.143 37.956 100.011 38 99.8498 38H98.0018ZM118.947 38.22C116.952 38.22 115.397 37.714 114.283 36.702C113.168 35.69 112.581 34.1867 112.523 32.192C112.508 31.7667 112.501 31.1433 112.501 30.322C112.501 29.486 112.508 28.8553 112.523 28.43C112.581 26.4793 113.183 24.9833 114.327 23.942C115.471 22.9007 117.011 22.38 118.947 22.38C120.883 22.38 122.423 22.9007 123.567 23.942C124.725 24.9833 125.334 26.4793 125.393 28.43C125.422 29.2807 125.437 29.9113 125.437 30.322C125.437 30.718 125.422 31.3413 125.393 32.192C125.319 34.1867 124.725 35.69 123.611 36.702C122.496 37.714 120.941 38.22 118.947 38.22ZM118.947 35.69C119.929 35.69 120.714 35.3967 121.301 34.81C121.887 34.2087 122.203 33.2993 122.247 32.082C122.276 31.202 122.291 30.608 122.291 30.3C122.291 29.9627 122.276 29.3687 122.247 28.518C122.203 27.3007 121.887 26.3987 121.301 25.812C120.714 25.2107 119.929 24.91 118.947 24.91C117.979 24.91 117.201 25.2107 116.615 25.812C116.028 26.3987 115.713 27.3007 115.669 28.518C115.654 28.9433 115.647 29.5373 115.647 30.3C115.647 31.048 115.654 31.642 115.669 32.082C115.713 33.2993 116.021 34.2087 116.593 34.81C117.179 35.3967 117.964 35.69 118.947 35.69ZM130.684 38C130.464 38 130.288 37.9413 130.156 37.824C130.024 37.7067 129.943 37.5453 129.914 37.34L127.296 23.238L127.274 23.062C127.274 22.93 127.318 22.82 127.406 22.732C127.508 22.644 127.618 22.6 127.736 22.6H129.671C130.038 22.6 130.244 22.7467 130.288 23.04L132.114 33.006L134.094 26.56C134.24 26.1933 134.482 26.01 134.82 26.01H136.008C136.374 26.01 136.609 26.1933 136.712 26.56L138.714 32.984L140.54 23.04C140.569 22.8787 140.628 22.7687 140.716 22.71C140.818 22.6367 140.965 22.6 141.156 22.6H143.092C143.209 22.6 143.312 22.644 143.4 22.732C143.488 22.82 143.532 22.93 143.532 23.062C143.532 23.1353 143.524 23.194 143.51 23.238L140.892 37.34C140.818 37.78 140.562 38 140.122 38H138.648C138.442 38 138.274 37.9487 138.142 37.846C138.01 37.7433 137.922 37.6113 137.878 37.45L135.414 30.102L132.95 37.45C132.803 37.8167 132.539 38 132.158 38H130.684Z" fill="#FF4948"/>
</svg>
